<?xml version="1.0" encoding="utf-8"?>
<!-- Generator: Adobe Illustrator 24.0.1, SVG Export Plug-In . SVG Version: 6.00 Build 0)  -->
<svg version="1.1" id="Layer_1" xmlns="http://www.w3.org/2000/svg" xmlns:xlink="http://www.w3.org/1999/xlink" x="0px" y="0px"
	 width="2594px" height="810px" viewBox="0 0 2594 810" style="enable-background:new 0 0 2594 810;" xml:space="preserve">
<style type="text/css">
	.st0{fill:none;}
	.st1{fill:none;stroke:#EEEEEE;stroke-miterlimit:10;}
	.st2{fill:url(#SVGID_1_);}
	.st3{fill:url(#SVGID_2_);}
</style>
<pattern  x="614" y="13" width="165.21" height="289.13" patternUnits="userSpaceOnUse" id="Diagonal_Line_2" viewBox="137.83 -448.27 165.21 289.13" style="overflow:visible;">
	<g>
		<rect x="137.83" y="-448.27" class="st0" width="165.21" height="289.13"/>
		<g>
			<line class="st1" x1="252.33" y1="-404.81" x2="417.55" y2="-115.66"/>
			<line class="st1" x1="245.09" y1="-395.09" x2="410.31" y2="-105.94"/>
			<line class="st1" x1="237.85" y1="-385.36" x2="403.07" y2="-96.22"/>
			<line class="st1" x1="230.61" y1="-375.64" x2="395.83" y2="-86.5"/>
			<line class="st1" x1="223.37" y1="-365.92" x2="388.59" y2="-76.78"/>
			<line class="st1" x1="216.13" y1="-356.2" x2="381.35" y2="-67.06"/>
			<line class="st1" x1="208.89" y1="-346.48" x2="374.11" y2="-57.34"/>
			<line class="st1" x1="201.65" y1="-336.76" x2="366.87" y2="-47.62"/>
			<line class="st1" x1="194.41" y1="-327.04" x2="359.63" y2="-37.89"/>
			<line class="st1" x1="187.17" y1="-317.32" x2="352.39" y2="-28.17"/>
			<line class="st1" x1="179.93" y1="-307.59" x2="345.15" y2="-18.45"/>
			<line class="st1" x1="172.69" y1="-297.87" x2="337.91" y2="-8.73"/>
			<line class="st1" x1="165.65" y1="-289.39" x2="330.86" y2="-0.25"/>
		</g>
		<g>
			<line class="st1" x1="87.12" y1="-404.81" x2="252.34" y2="-115.66"/>
			<line class="st1" x1="79.88" y1="-395.09" x2="245.1" y2="-105.94"/>
			<line class="st1" x1="72.64" y1="-385.36" x2="237.86" y2="-96.22"/>
			<line class="st1" x1="65.4" y1="-375.64" x2="230.62" y2="-86.5"/>
			<line class="st1" x1="58.16" y1="-365.92" x2="223.38" y2="-76.78"/>
			<line class="st1" x1="50.92" y1="-356.2" x2="216.14" y2="-67.06"/>
			<line class="st1" x1="43.68" y1="-346.48" x2="208.9" y2="-57.34"/>
			<line class="st1" x1="36.44" y1="-336.76" x2="201.66" y2="-47.62"/>
			<line class="st1" x1="29.2" y1="-327.04" x2="194.42" y2="-37.89"/>
			<line class="st1" x1="21.96" y1="-317.32" x2="187.18" y2="-28.17"/>
			<line class="st1" x1="14.72" y1="-307.59" x2="179.94" y2="-18.45"/>
			<line class="st1" x1="7.48" y1="-297.87" x2="172.69" y2="-8.73"/>
			<line class="st1" x1="0.43" y1="-289.39" x2="165.65" y2="-0.25"/>
		</g>
		<g>
			<line class="st1" x1="252.33" y1="-693.94" x2="417.55" y2="-404.8"/>
			<line class="st1" x1="245.09" y1="-684.22" x2="410.31" y2="-395.07"/>
			<line class="st1" x1="237.85" y1="-674.5" x2="403.07" y2="-385.35"/>
			<line class="st1" x1="230.61" y1="-664.78" x2="395.83" y2="-375.63"/>
			<line class="st1" x1="223.37" y1="-655.05" x2="388.59" y2="-365.91"/>
			<line class="st1" x1="216.13" y1="-645.33" x2="381.35" y2="-356.19"/>
			<line class="st1" x1="208.89" y1="-635.61" x2="374.11" y2="-346.47"/>
			<line class="st1" x1="201.65" y1="-625.89" x2="366.87" y2="-336.75"/>
			<line class="st1" x1="194.41" y1="-616.17" x2="359.63" y2="-327.03"/>
			<line class="st1" x1="187.17" y1="-606.45" x2="352.39" y2="-317.3"/>
			<line class="st1" x1="179.93" y1="-596.73" x2="345.15" y2="-307.58"/>
			<line class="st1" x1="172.69" y1="-587" x2="337.91" y2="-297.86"/>
			<line class="st1" x1="165.65" y1="-578.52" x2="330.86" y2="-289.38"/>
		</g>
		<g>
			<line class="st1" x1="87.12" y1="-693.94" x2="252.34" y2="-404.8"/>
			<line class="st1" x1="79.88" y1="-684.22" x2="245.1" y2="-395.07"/>
			<line class="st1" x1="72.64" y1="-674.5" x2="237.86" y2="-385.35"/>
			<line class="st1" x1="65.4" y1="-664.78" x2="230.62" y2="-375.63"/>
			<line class="st1" x1="58.16" y1="-655.05" x2="223.38" y2="-365.91"/>
			<line class="st1" x1="50.92" y1="-645.33" x2="216.14" y2="-356.19"/>
			<line class="st1" x1="43.68" y1="-635.61" x2="208.9" y2="-346.47"/>
			<line class="st1" x1="36.44" y1="-625.89" x2="201.66" y2="-336.75"/>
			<line class="st1" x1="29.2" y1="-616.17" x2="194.42" y2="-327.03"/>
			<line class="st1" x1="21.96" y1="-606.45" x2="187.18" y2="-317.3"/>
			<line class="st1" x1="14.72" y1="-596.73" x2="179.94" y2="-307.58"/>
			<line class="st1" x1="7.48" y1="-587" x2="172.69" y2="-297.86"/>
			<line class="st1" x1="0.43" y1="-578.52" x2="165.65" y2="-289.38"/>
		</g>
	</g>
</pattern>
<g>
	<g>
		<pattern  id="SVGID_1_" xlink:href="#Diagonal_Line_2" patternTransform="matrix(1 0 0 1 2390.416 269.0276)">
		</pattern>
		<path class="st2" d="M2593.83,443.21c0-60.01-52.66-106.29-112.2-98.82C1850.68,423.54,1605.8,68.22,1039.29,68.22
			c-98.91,0-291.18,53.97-390.11,53.39c-170.09-1-365.08-22.88-498.64-60.79C75.47,39.51,0.84,95.84,0.7,173.87L0.46,304.5
			c-0.12,67.03,24.13,131.81,68.2,182.32c88.58,101.55,226.16,229.22,451.83,150.58c555.39-193.55,1111.42,429.92,1988.28,44.14
			c51.77-22.78,85.07-74.13,85.07-130.68V443.21z"/>
	</g>
</g>
<g>
	<g>
		
			<linearGradient id="SVGID_2_" gradientUnits="userSpaceOnUse" x1="11101.7305" y1="361.4517" x2="14200.1768" y2="-853.5843" gradientTransform="matrix(-0.9959 0.09 0.09 0.9959 14281.4443 -388.5291)">
			<stop  offset="0.104" style="stop-color:#C9E8EB"/>
			<stop  offset="0.7581" style="stop-color:#E0EFF0"/>
		</linearGradient>
		<path class="st3" d="M2593.83,384.55c0-64.66-56.62-114.56-120.8-106.75C1848.43,353.82,1603.12,11.22,1039.29,0.47
			c-155.77-2.97-291,53.39-505.26,53.39c-142.4,0-268.4-15.54-364.05-43.05C85.3-13.54,0.8,49.53,0.64,137.63L0.45,245.54
			c-0.11,60.7,21.62,119.41,61.2,165.44c88.29,102.67,227.12,239.43,458.84,158.68c547.74-190.88,1096.1,412.9,1952.22,59.51
			c73.23-30.23,121.12-101.48,121.12-180.7V384.55z"/>
	</g>
</g>
</svg>
