<svg id="backyard_1_" data-name="backyard (1)" xmlns="http://www.w3.org/2000/svg" width="104.508" height="104.508" viewBox="0 0 104.508 104.508">
  <path id="Path_3455" data-name="Path 3455" d="M29.371,48.81V37.251l-6.94-5.2a3.062,3.062,0,0,1,3.674-4.9l6.328,4.746,6.328-4.746a3.062,3.062,0,0,1,3.674,4.9l-6.94,5.2V48.81C45.867,47.6,53.865,40.364,53.865,31.638A15.7,15.7,0,0,0,47.741,19.5V15.309a15.309,15.309,0,1,0-30.618,0V19.5A15.7,15.7,0,0,0,11,31.638C11,40.364,19,47.6,29.371,48.81Z" transform="translate(-8.755)" fill="#a8a8a8"/>
  <path id="Path_3456" data-name="Path 3456" d="M309.371,48.81V37.251l-6.94-5.2a3.062,3.062,0,1,1,3.674-4.9l6.328,4.746,6.328-4.746a3.062,3.062,0,1,1,3.674,4.9l-6.94,5.2V48.81c10.372-1.207,18.371-8.447,18.371-17.172A15.7,15.7,0,0,0,327.741,19.5V15.309a15.309,15.309,0,0,0-30.618,0V19.5A15.7,15.7,0,0,0,291,31.638C291,40.364,299,47.6,309.371,48.81Z" transform="translate(-231.602)" fill="#a8a8a8"/>
  <path id="Path_3457" data-name="Path 3457" d="M101,239.129v6.236c.126.113.25.229.371.35l5.1,5.1a9.351,9.351,0,0,1,.649.722V239.129a26.452,26.452,0,0,1-6.124,0Z" transform="translate(-80.384 -190.319)" fill="#a8a8a8"/>
  <path id="Path_3458" data-name="Path 3458" d="M381,239.129V251.54a9.269,9.269,0,0,1,.649-.722l5.1-5.1c.121-.121.245-.237.371-.35v-6.236a26.452,26.452,0,0,1-6.124,0Z" transform="translate(-303.231 -190.318)" fill="#a8a8a8"/>
  <path id="Path_3459" data-name="Path 3459" d="M141,352h9.185v18.371H141Z" transform="translate(-112.219 -280.151)" fill="#a8a8a8"/>
  <path id="Path_3460" data-name="Path 3460" d="M326,352h9.185v18.371H326Z" transform="translate(-259.458 -280.151)" fill="#a8a8a8"/>
  <path id="Path_3461" data-name="Path 3461" d="M101.446,327.768H98.181V296.377a3.062,3.062,0,0,0-.9-2.165l-5.1-5.1a3.062,3.062,0,0,0-4.33,0l-5.1,5.1a3.062,3.062,0,0,0-.9,2.165v31.391H60.419V296.377a3.062,3.062,0,0,0-.9-2.165l-5.1-5.1a3.062,3.062,0,0,0-4.33,0l-5.1,5.1a3.062,3.062,0,0,0-.9,2.165v31.391H22.657V296.377a3.062,3.062,0,0,0-.9-2.165l-5.1-5.1a3.062,3.062,0,0,0-4.33,0l-5.1,5.1a3.062,3.062,0,0,0-.9,2.165v31.391H3.062a3.062,3.062,0,0,0,0,6.124h98.385a3.062,3.062,0,0,0,0-6.124Z" transform="translate(0 -229.383)" fill="#a8a8a8"/>
</svg>
