<svg id="net" xmlns="http://www.w3.org/2000/svg" width="99.002" height="100.896" viewBox="0 0 99.002 100.896">
  <g id="Page-1" transform="translate(0 0)">
    <g id="_037---Ball-and-Hoop" data-name="037---Ball-and-Hoop">
      <path id="Shape" d="M50.851,11.278c0-.174-.021-.327-.026-.491-1.334.1-2.669.205-3.963.369a53.849,53.849,0,0,0-16.829,4.62,22.5,22.5,0,0,0,5.741,13.931c9.058-3.154,15.077-10.439,15.077-18.429Z" transform="translate(23.293 7.978)" fill="#0589e1"/>
      <path id="Shape-2" data-name="Shape" d="M34.948,32.481a22.486,22.486,0,0,0,14.007,4.893c.649,0,1.287-.043,1.914-.1.108-.207.221-.393.327-.616,2.232-4.8,3.57-12.621,3.57-20.919,0-1.757-.077-3.453-.19-5.106-.2,0-.391-.016-.591-.016H53.81c-1.063,0-2.108.061-3.159.1.009.226.037.451.037.678.007,8.973-6.216,17.138-15.74,21.08Z" transform="translate(27.089 7.855)" fill="#0589e1"/>
      <path id="Shape-3" data-name="Shape" d="M58.273,13.145a22.562,22.562,0,0,0-4.406-8.453A21.355,21.355,0,0,0,51.8,12.108c.129.016.263.019.391.035,2.1.249,4.118.6,6.082,1Z" transform="translate(39.896 3.47)" fill="#0589e1"/>
      <path id="Shape-4" data-name="Shape" d="M52.671,15.02a23.9,23.9,0,0,1,2.975-9.707A22.514,22.514,0,0,0,45.918.343a44.359,44.359,0,0,1,3.738,14.508C50.678,14.891,51.68,14.947,52.671,15.02Z" transform="translate(35.545 0.254)" fill="#0589e1"/>
      <path id="Shape-5" data-name="Shape" d="M52.135,10.85c-.854-.064-1.707-.122-2.575-.162.1,1.581.158,3.274.158,5a60.005,60.005,0,0,1-3.23,20.781,22.688,22.688,0,0,0,12.72-9.2c-4.175-2.987-6.917-9.262-7.073-16.427Z" transform="translate(35.967 7.905)" fill="#0589e1"/>
      <path id="Shape-6" data-name="Shape" d="M59.036,12.215a69.2,69.2,0,0,0-7.216-1.254h-.082c.209,5.671,2.261,10.685,5.29,13.063a22.42,22.42,0,0,0,2.007-11.808Z" transform="translate(39.85 8.107)" fill="#0589e1"/>
      <path id="Shape-7" data-name="Shape" d="M47.655,15.112c1.2-.049,2.394-.113,3.606-.115h.458C50.932,8.242,49.2,2.665,47.035.026,46.827.026,46.618,0,46.4,0a22.468,22.468,0,0,0-8,1.491,22.764,22.764,0,0,1,9.255,13.621Z" transform="translate(29.659 0)" fill="#0589e1"/>
      <path id="Shape-8" data-name="Shape" d="M50.285,13.93A20.075,20.075,0,0,0,40.891,1.876,22.623,22.623,0,0,0,30.106,18.463a59.841,59.841,0,0,1,16.263-4.175c1.282-.155,2.6-.254,3.916-.358Z" transform="translate(23.341 1.387)" fill="#0589e1"/>
      <path id="Shape-9" data-name="Shape" d="M55.62,41H15.609a2.609,2.609,0,1,0,0,5.219H55.62a2.609,2.609,0,0,0,0-5.219Z" transform="translate(10.301 30.323)" fill="#0589e1"/>
      <path id="Shape-10" data-name="Shape" d="M49.562,15.958A25.546,25.546,0,0,1,50.55,9H1.77A1.755,1.755,0,0,0,0,10.74V62.927a1.755,1.755,0,0,0,1.77,1.74H20.092a6.173,6.173,0,0,1,4.689-3.39V35.146a5.174,5.174,0,0,1,1.555-3.69,5.358,5.358,0,0,1,3.755-1.529h17.7a1.74,1.74,0,1,1,0,3.479h-17.7a1.755,1.755,0,0,0-1.77,1.74V61.188h35.4V45.531a1.77,1.77,0,0,1,3.54,0V61.276a6.173,6.173,0,0,1,4.689,3.39H90.273a1.755,1.755,0,0,0,1.77-1.74V36.785a26.886,26.886,0,0,1-27.81,2.529A26,26,0,0,1,49.562,15.958Zm-31.861,0H7.08v5.219a1.77,1.77,0,0,1-3.54,0V14.219a1.755,1.755,0,0,1,1.77-1.74H17.7a1.74,1.74,0,1,1,0,3.479Z" transform="translate(0 6.656)" fill="#0589e1"/>
      <path id="Shape-11" data-name="Shape" d="M49.407,48.766c-.035.017-.087.035-.1.07l-1.357,1.253L43.857,46h-5.08l-4.332,4.245L30.114,46h-5.08l-4.088,4.088L19.59,48.836c-.017-.035-.052-.035-.087-.07-.331-.957-.713-1.861-1.1-2.766H14.58a36.985,36.985,0,0,1,2.975,8.594,49.638,49.638,0,0,1,1.2,9.811,2.58,2.58,0,0,0,2.627,2.453,2.717,2.717,0,0,0,1.827-.731L27.94,61.5l4.7,4.662a2.632,2.632,0,0,0,1.792.713,2.707,2.707,0,0,0,1.861-.748L40.952,61.5l4.784,4.679a2.709,2.709,0,0,0,1.809.7,2.609,2.609,0,0,0,2.592-2.47,51.666,51.666,0,0,1,1.218-9.829A35.359,35.359,0,0,1,54.347,46H50.485c-.383.9-.748,1.809-1.079,2.766ZM22.147,62.317a53.909,53.909,0,0,0-.957-7.237l4.245,4Zm5.775-5.671-4.436-4.175,4.088-4.088,4.384,4.3Zm6.523,6.419-4.036-4,4.036-3.949,4.036,3.949ZM36.934,52.68l4.384-4.3,4.088,4.088L40.97,56.646Zm9.811,9.637-3.288-3.236,4.262-4.018a59.3,59.3,0,0,0-.974,7.254Z" transform="translate(11.48 34.021)" fill="#0589e1"/>
    </g>
  </g>
</svg>
