<svg id="pier_1_" data-name="pier (1)" xmlns="http://www.w3.org/2000/svg" width="104.464" height="104.464" viewBox="0 0 104.464 104.464">
  <path id="Path_3462" data-name="Path 3462" d="M154.589,392,150,398.121h43.255L188.662,392Z" transform="translate(-119.394 -312.019)" fill="#a8a8a8"/>
  <path id="Path_3463" data-name="Path 3463" d="M102.566,217.96a13.6,13.6,0,0,1-2.373-1.261,19.562,19.562,0,0,0-21.758,0,13.456,13.456,0,0,1-14.968,0,20.24,20.24,0,0,0-22.166,0,13.456,13.456,0,0,1-14.968,0,19.562,19.562,0,0,0-21.758,0,13.449,13.449,0,0,1-2.618,1.36A3.058,3.058,0,0,0,0,220.913v50.346a3.059,3.059,0,0,0,3.06,3.06H9.182l9.181-12.24v-15.3a3.06,3.06,0,0,1,6.121,0v7.143l6.121-8.161V234.534a3.06,3.06,0,1,1,6.121,0v9.181H67.739v-9.181a3.06,3.06,0,1,1,6.121,0v11.224l6.121,8.161v-7.143a3.06,3.06,0,0,1,6.121,0v15.3l9.18,12.24H101.4a3.059,3.059,0,0,0,3.06-3.06V220.791A3.062,3.062,0,0,0,102.566,217.96Z" transform="translate(0 -169.856)" fill="#a8a8a8"/>
  <path id="Path_3464" data-name="Path 3464" d="M82.493,464.242h70.8L144.112,452H91.675Z" transform="translate(-65.662 -359.778)" fill="#a8a8a8"/>
  <path id="Path_3465" data-name="Path 3465" d="M122.222,39.132V3.06A3.059,3.059,0,0,0,119.162,0,25.53,25.53,0,0,0,94.2,20.467L92.169,30.809H60.053L58.026,20.467A25.531,25.531,0,0,0,33.06,0,3.059,3.059,0,0,0,30,3.06V39.25a25.509,25.509,0,0,1,6.121-1.593V6.366a19.4,19.4,0,0,1,15.9,15.3l1.787,9.14H45.3a3.059,3.059,0,0,0-3.06,3.06,27.73,27.73,0,0,0,.375,3.793,25.679,25.679,0,0,1,10.991,4.089,7.344,7.344,0,0,0,8.177,0A27.007,27.007,0,0,1,76.468,37.42a25.674,25.674,0,0,1,14.274,4.331,7.344,7.344,0,0,0,8.177,0,25.7,25.7,0,0,1,10.68-4.066,27.722,27.722,0,0,0,.381-3.816,3.059,3.059,0,0,0-3.06-3.06H98.411l1.787-9.14a19.405,19.405,0,0,1,15.9-15.3V37.634a25.525,25.525,0,0,1,6.121,1.5Z" transform="translate(-23.879)" fill="#a8a8a8"/>
</svg>
