<svg xmlns="http://www.w3.org/2000/svg" width="46.337" height="46.285" viewBox="0 0 46.337 46.285">
  <g id="contact" transform="translate(0 -0.29)">
    <g id="XMLID_724_" transform="translate(0 0.29)">
      <path id="XMLID_816_" d="M44.439.8a3.8,3.8,0,0,0-5.189,1.391l-5.178,8.969H22.9a.905.905,0,0,0,0,1.81H33.026l-3.758,6.508H8.146a.905.905,0,0,0,0,1.81H28.223l-2.09,3.62H8.146a.905.905,0,1,0,0,1.81H25.759l-.39,3.62H8.146a.905.905,0,0,0,0,1.81H25.174l-.048.447a.905.905,0,0,0,1.434.828L32.338,29.2a.9.9,0,0,0,.25-.278l7.053-12.216V34.248a3.682,3.682,0,0,1-3.678,3.678H14.989a.9.9,0,0,0-.784.453L11.04,43.86,7.876,38.379a.9.9,0,0,0-.784-.453h-1.6A3.682,3.682,0,0,1,1.81,34.248v-17.6a3.682,3.682,0,0,1,3.678-3.678h9.271a.905.905,0,1,0,0-1.81H5.488A5.494,5.494,0,0,0,0,16.646v17.6a5.494,5.494,0,0,0,5.488,5.488H6.569l3.687,6.386a.905.905,0,0,0,1.568,0l3.687-6.386H35.963a5.494,5.494,0,0,0,5.488-5.488v-17.6a5.5,5.5,0,0,0-.479-2.245l4.857-8.413A3.8,3.8,0,0,0,44.439.8Zm-.905,1.568a1.991,1.991,0,0,1,.728,2.717l-.517.9L40.3,3.99l.517-.9A1.991,1.991,0,0,1,43.534,2.366ZM27.543,27.054l2.605,1.5-3,2.194Zm3.93.179-3.445-1.989L39.395,5.558l3.445,1.989Z" transform="translate(0 -0.29)" fill="#686868"/>
      <path id="XMLID_819_" d="M198.984,122.177a.9.9,0,1,0-.64-.265A.916.916,0,0,0,198.984,122.177Z" transform="translate(-180.153 -109.499)" fill="#686868"/>
    </g>
  </g>
</svg>
