<svg xmlns="http://www.w3.org/2000/svg" width="125" height="84.882" viewBox="0 0 125 84.882">
  <g id="Page-1" transform="translate(-0.04)">
    <g id="_041---Weight-Training" data-name="041---Weight-Training" transform="translate(0.04)">
      <path id="Shape" d="M72.585,3.748A3.337,3.337,0,0,1,75.9,7.1v4.718l-1.057-1.065a6.831,6.831,0,0,0-4.8-1.979h-.022a6.178,6.178,0,0,0-.818.08V7.1a3.351,3.351,0,0,1,3.389-3.351Zm-14.557-.4a3.351,3.351,0,0,1,6.7,0v8.265a11.059,11.059,0,0,0,0,12.062v1.351a3.545,3.545,0,0,1-3.351,2.354,3.317,3.317,0,0,1-3.351-3.31ZM46.859,5.191a3.351,3.351,0,1,1,6.7,0V24.069a3.322,3.322,0,0,1-3.317,3.319h-.067a3.322,3.322,0,0,1-3.317-3.319ZM35.69,8.935a3.351,3.351,0,1,1,6.7,0V27.79a3.351,3.351,0,1,1-6.7,0ZM4.507,55.843A4.467,4.467,0,0,1,.04,51.376V17.87a4.467,4.467,0,0,1,8.935,0V51.376A4.467,4.467,0,0,1,4.507,55.843Zm17.87,8.935a4.467,4.467,0,0,1-8.935,0V4.467a4.467,4.467,0,1,1,8.935,0Zm4.467-35.74H31.35a7.8,7.8,0,0,0,14.912,1.722,7.7,7.7,0,0,0,3.911,1.095h.067a7.751,7.751,0,0,0,5.553-2.343c.025.027.042.058.069.085a7.791,7.791,0,0,0,5.515,2.258A8.041,8.041,0,0,0,68.4,27.7c.223.223.471.474.686.692l2.654,2.68A26.22,26.22,0,0,0,61.718,39.56c-.156.223-.279.447-.427.67H26.845ZM72.384,61.959a6.532,6.532,0,0,0-.954,3.422V80.415a4.467,4.467,0,0,1-4.467,4.467H49.093a4.467,4.467,0,0,1-4.467-4.467V65.6a10.894,10.894,0,0,0-1.787-5.651l-2.613-4.508a17.329,17.329,0,0,1-2.3-9.364V44.675h21c-.295.692-.592,1.387-.842,2.115a2.235,2.235,0,1,0,4.231,1.441,24.636,24.636,0,0,1,2.156-4.691,13.043,13.043,0,0,1,.894-1.392,21.477,21.477,0,0,1,10.912-8.077,2.234,2.234,0,0,0,1.048-3.735s-1.678-1.7-5.042-5.086c-.945-.967-2.035-2.055-3.266-3.29l-.176-.179a2.082,2.082,0,0,0-.223-.279,6.529,6.529,0,0,1,.08-7.731,1.64,1.64,0,0,1,1.34-.525,2.325,2.325,0,0,1,1.637.67l16.291,16.4a3.424,3.424,0,0,1,.489,4.244ZM90.317,40.207l1.968-3.351a7.91,7.91,0,0,0,.194-7.818h5.756V40.207Zm21.321,24.571a4.467,4.467,0,1,1-8.935,0V4.467a4.467,4.467,0,1,1,8.935,0Zm13.4-13.4a4.467,4.467,0,1,1-8.935,0V17.87a4.467,4.467,0,1,1,8.935,0Z" transform="translate(-0.04)" fill="#a8a8a8"/>
    </g>
  </g>
</svg>
