<svg xmlns="http://www.w3.org/2000/svg" width="48.445" height="39.779" viewBox="0 0 48.445 39.779">
  <g id="homepage" transform="translate(0.001 -3.611)">
    <g id="Group_343" data-name="Group 343" transform="translate(-0.001 3.611)">
      <path id="Path_3342" data-name="Path 3342" d="M47.879,20.522,25.316,3.956a1.908,1.908,0,0,0-2.187,0L.565,20.522a1.239,1.239,0,0,0-.154,1.961,1.891,1.891,0,0,0,2.341.129L4.5,21.33V42a1.542,1.542,0,0,0,1.659,1.39H42.286A1.542,1.542,0,0,0,43.945,42V21.33l1.747,1.283a1.852,1.852,0,0,0,1.093.345,1.809,1.809,0,0,0,1.248-.474A1.239,1.239,0,0,0,47.879,20.522ZM20.391,40.61V29.162h7.662V40.61ZM40.627,18.9V40.61H31.372V27.772a1.543,1.543,0,0,0-1.659-1.39H18.732a1.543,1.543,0,0,0-1.659,1.39V40.61H7.818V18.9s0-.007,0-.01L24.222,6.849,40.627,18.894S40.627,18.9,40.627,18.9Z" transform="translate(0.001 -3.611)" fill="#fff"/>
      <path id="Path_3343" data-name="Path 3343" d="M154.5,110.187a1.949,1.949,0,0,0,1.949,1.949h4.833a1.949,1.949,0,0,0,0-3.9h-4.833A1.949,1.949,0,0,0,154.5,110.187Z" transform="translate(-134.643 -96.957)" fill="#fff"/>
    </g>
  </g>
</svg>
