<svg id="place" xmlns="http://www.w3.org/2000/svg" width="48.414" height="48.414" viewBox="0 0 48.414 48.414">
  <g id="Group_391" data-name="Group 391">
    <g id="Group_390" data-name="Group 390">
      <path id="Path_3481" data-name="Path 3481" d="M42.492,8.894a5.053,5.053,0,0,0-5.047,5.047v3.552H33.39a11.158,11.158,0,1,0-18.366,0H10.969V13.941A5.053,5.053,0,0,0,5.922,8.894,5.929,5.929,0,0,0,0,14.816V41.43a6.992,6.992,0,0,0,6.984,6.984H41.43a6.992,6.992,0,0,0,6.984-6.984V14.816A5.929,5.929,0,0,0,42.492,8.894ZM14.94,11.158a9.267,9.267,0,1,1,16.453,5.85l-.033.042-7.154,9.17L17.13,17.153a.957.957,0,0,0-.071-.1A9.28,9.28,0,0,1,14.94,11.158ZM1.891,14.816a4.035,4.035,0,0,1,4.031-4.031,3.159,3.159,0,0,1,3.156,3.156V36.621a5.022,5.022,0,0,0-3.156-1.112A5.9,5.9,0,0,0,1.891,37.1Zm29.8,31.706-3.206-3.206a.946.946,0,0,0-1.337,1.337l1.869,1.869H6.984A5.1,5.1,0,0,1,1.891,41.43,4.035,4.035,0,0,1,5.922,37.4a3.159,3.159,0,0,1,3.156,3.156A2.437,2.437,0,0,1,6.643,42.99a1.842,1.842,0,0,1-1.84-1.84.946.946,0,0,0-1.891,0,3.735,3.735,0,0,0,3.731,3.731,4.33,4.33,0,0,0,4.326-4.326V36.121h7.646l3.848,3.848A.946.946,0,1,0,23.8,38.632l-4.125-4.125a.946.946,0,0,0-.669-.277H10.969V31.4H22.583a.946.946,0,0,0,0-1.891H10.969V19.385h5.5l6.989,8.954a.946.946,0,0,0,1.491,0l6.986-8.954h5.507v1.228L24.54,33.518a.946.946,0,0,0,0,1.337L36.207,46.523Zm9.74,0H38.882L26.546,34.187l10.9-10.9V40.555a4.33,4.33,0,0,0,4.325,4.326A3.735,3.735,0,0,0,45.5,41.149a.946.946,0,0,0-1.891,0,1.842,1.842,0,0,1-1.84,1.84,2.437,2.437,0,0,1-2.434-2.434A3.159,3.159,0,0,1,42.492,37.4a4.035,4.035,0,0,1,4.031,4.031A5.1,5.1,0,0,1,41.43,46.523ZM46.523,37.1a5.9,5.9,0,0,0-4.031-1.589,5.022,5.022,0,0,0-3.156,1.112V13.941a3.159,3.159,0,0,1,3.156-3.156,4.035,4.035,0,0,1,4.031,4.031Z" fill="#686868"/>
    </g>
  </g>
  <g id="Group_393" data-name="Group 393" transform="translate(4.539 16.358)">
    <g id="Group_392" data-name="Group 392">
      <path id="Path_3482" data-name="Path 3482" d="M48.946,172.989a.946.946,0,0,0-.946.946v6.943a.946.946,0,1,0,1.891,0v-6.943A.946.946,0,0,0,48.946,172.989Z" transform="translate(-48 -172.989)" fill="#686868"/>
    </g>
  </g>
  <g id="Group_395" data-name="Group 395" transform="translate(4.539 26.951)">
    <g id="Group_394" data-name="Group 394">
      <path id="Path_3483" data-name="Path 3483" d="M49.614,285.3a.945.945,0,1,0,.277.669A.952.952,0,0,0,49.614,285.3Z" transform="translate(-48 -285.021)" fill="#686868"/>
    </g>
  </g>
  <g id="Group_397" data-name="Group 397" transform="translate(17.517 4.631)">
    <g id="Group_396" data-name="Group 396">
      <path id="Path_3484" data-name="Path 3484" d="M191.94,48.974a6.69,6.69,0,1,0,6.69,6.69A6.7,6.7,0,0,0,191.94,48.974Zm0,11.489a4.8,4.8,0,1,1,4.8-4.8A4.8,4.8,0,0,1,191.94,60.463Z" transform="translate(-185.25 -48.974)" fill="#686868"/>
    </g>
  </g>
  <g id="Group_399" data-name="Group 399" transform="translate(24.562 40.731)">
    <g id="Group_398" data-name="Group 398">
      <path id="Path_3485" data-name="Path 3485" d="M261.364,431.027a.945.945,0,1,0,.277.669A.952.952,0,0,0,261.364,431.027Z" transform="translate(-259.75 -430.75)" fill="#686868"/>
    </g>
  </g>
</svg>
