<svg xmlns="http://www.w3.org/2000/svg" width="23.773" height="23.773" viewBox="0 0 23.773 23.773">
  <g id="Solid" transform="translate(-24 -24)">
    <path id="Path_3317" data-name="Path 3317" d="M36.118,151.125a1.23,1.23,0,0,0,1.739,1.739l4.637-4.637a1.23,1.23,0,0,0,0-1.739l-4.637-4.637a1.23,1.23,0,0,0-1.739,1.739l2.538,2.538H25.23a1.23,1.23,0,1,0,0,2.459H38.657Z" transform="translate(0 -111.471)" fill="#0589e1"/>
    <path id="Path_3318" data-name="Path 3318" d="M197.526,24H186.049A2.049,2.049,0,0,0,184,26.049v1.64a1.23,1.23,0,1,0,2.459,0v-1.23h10.657V45.314H186.459v-1.23a1.23,1.23,0,1,0-2.459,0v1.64a2.049,2.049,0,0,0,2.049,2.049h11.477a2.049,2.049,0,0,0,2.049-2.049V26.049A2.049,2.049,0,0,0,197.526,24Z" transform="translate(-151.802 0)" fill="#0589e1"/>
  </g>
</svg>
