<svg xmlns="http://www.w3.org/2000/svg" width="43.486" height="62.123" viewBox="0 0 43.486 62.123">
  <g id="Outline" transform="translate(-5 -2)">
    <g id="Group_182" data-name="Group 182" transform="translate(5 2)">
      <path id="Path_2742" data-name="Path 2742" d="M26.743,2A21.727,21.727,0,0,0,5,23.743c0,16.307,21.743,40.38,21.743,40.38S48.486,40.05,48.486,23.743A21.727,21.727,0,0,0,26.743,2ZM11.212,23.743a15.531,15.531,0,1,1,31.061,0c0,8.946-8.946,22.333-15.531,30.689C20.282,46.138,11.212,32.6,11.212,23.743Z" transform="translate(-5 -2)" fill="#f34e3d"/>
      <circle id="Ellipse_91" data-name="Ellipse 91" cx="7.765" cy="7.765" r="7.765" transform="translate(13.978 13.978)" fill="#f34e3d"/>
    </g>
  </g>
</svg>
