<svg xmlns="http://www.w3.org/2000/svg" width="48.486" height="48.486" viewBox="0 0 48.486 48.486">
  <g id="swimming-pool" transform="translate(-1 -1)">
    <path id="Path_3326" data-name="Path 3326" d="M42.448,25.256H40.1V20.564A1.566,1.566,0,0,0,38.538,19H36.973a1.566,1.566,0,0,0-1.564,1.564v1.564H30.717V20.564A1.566,1.566,0,0,0,29.153,19H27.589a1.566,1.566,0,0,0-1.564,1.564v4.692H8.038A7.047,7.047,0,0,0,1,32.295V43.243a7.046,7.046,0,0,0,7.038,7.038H21.413a1.556,1.556,0,0,1,1.106.457l.608.608a7,7,0,0,0,4.98,2.062H42.448a7.046,7.046,0,0,0,7.038-7.038V32.295A7.047,7.047,0,0,0,42.448,25.256ZM2.564,38.551H4.128v1.564H2.564ZM21.333,28.384V26.82H22.9v1.564Zm-1.564,0H18.2V26.82h1.564Zm-3.128,0H15.077V26.82h1.564Zm-3.128,0H11.948V26.82h1.564Zm-3.128,0H8.82V26.82h1.564Zm-3.128.079a3.86,3.86,0,0,0-1.147.451L5.088,27.691a5.42,5.42,0,0,1,2.168-.808Zm-3.128,5.4H2.564V32.295H4.128Zm0,1.564v1.564H2.564V35.423Zm.332,6.256a3.917,3.917,0,0,0,.473.785L3.907,43.7a5.466,5.466,0,0,1-1.112-2.016ZM6.109,43.5a3.837,3.837,0,0,0,1.147.45v1.58a5.427,5.427,0,0,1-2.167-.807Zm2.711.529h1.564v1.564H8.82Zm3.128,0h1.564v1.564H11.948Zm3.128,0h1.564V45.59H15.077Zm3.128,0h1.564V45.59H18.2Zm3.128,0h.4a3.877,3.877,0,0,1,1.792.454l-.641,1.5a3.1,3.1,0,0,0-1.474-.385h-.08Zm3.47,1.448.535.535a3.923,3.923,0,0,0,.687.539v1.763a5.474,5.474,0,0,1-1.793-1.2l-.092-.092ZM27.589,47.1a4.01,4.01,0,0,0,.514.05h1.05v1.564H28.106c-.174,0-.346-.009-.517-.025Zm3.128.05h1.564v1.564H30.717Zm3.128,0h1.564v1.564H33.845Zm3.128,0h1.564v1.564H36.973Zm3.128,0h1.564v1.564H40.1Zm3.128-.079a3.888,3.888,0,0,0,1.147-.45l1.02,1.224a5.428,5.428,0,0,1-2.167.807Zm0-20.191a5.443,5.443,0,0,1,2.168.807l-1.021,1.224a3.86,3.86,0,0,0-1.147-.451Zm3.349,19.94-1.026-1.231a3.9,3.9,0,0,0,.473-.785h1.665a5.466,5.466,0,0,1-1.112,2.016Zm-.221-3.58V41.679h1.564v1.564Zm1.564-3.128H46.358V38.551h1.564Zm0-3.128H46.358V35.423h1.564Zm0-3.128H46.358V32.295h1.564Zm-.231-3.128H46.026a3.917,3.917,0,0,0-.473-.785l1.026-1.231A5.466,5.466,0,0,1,47.691,30.73Zm-6.026-3.91v1.564H40.1V26.82Zm-4.692-6.256h1.564V31.513H36.973Zm-1.564,7.82H30.717V26.82h4.692Zm0-4.692v1.564H30.717V23.692Zm-7.82-3.128h1.564V31.513H27.589Zm1.564,12.513a1.566,1.566,0,0,0,1.564-1.564V29.948h4.692v1.564a1.566,1.566,0,0,0,1.564,1.564h1.564A1.566,1.566,0,0,0,40.1,31.513V29.948h2.346a2.349,2.349,0,0,1,2.346,2.346V43.243a2.349,2.349,0,0,1-2.346,2.346H28.1a2.362,2.362,0,0,1-1.659-.687l-.837-.837a5.439,5.439,0,0,0-3.871-1.6H8.038a2.349,2.349,0,0,1-2.346-2.346v-7.82a2.349,2.349,0,0,1,2.346-2.346H26.025v1.564a1.566,1.566,0,0,0,1.564,1.564Zm-3.128-4.692H24.461V26.82h1.564Zm-22.118.33,1.026,1.231a3.881,3.881,0,0,0-.473.785H2.795a5.466,5.466,0,0,1,1.112-2.016ZM42.448,51.845H28.106a5.445,5.445,0,0,1-3.874-1.6l-.608-.608a3.107,3.107,0,0,0-2.212-.916H8.038A5.482,5.482,0,0,1,2.79,44.788a7.014,7.014,0,0,0,5.248,2.365H21.413a1.556,1.556,0,0,1,1.106.457l.608.608a7,7,0,0,0,4.98,2.062H42.448A7.014,7.014,0,0,0,47.7,47.916a5.481,5.481,0,0,1-5.248,3.93Z" transform="translate(0 -3.923)" fill="#686868"/>
    <path id="Path_3327" data-name="Path 3327" d="M9,37h4.692v1.564H9Z" transform="translate(-1.744 -7.847)" fill="#686868"/>
    <path id="Path_3328" data-name="Path 3328" d="M19,43h6.256v1.564H19Z" transform="translate(-3.923 -9.155)" fill="#686868"/>
    <path id="Path_3329" data-name="Path 3329" d="M41,48h6.256v1.564H41Z" transform="translate(-8.719 -10.244)" fill="#686868"/>
    <path id="Path_3330" data-name="Path 3330" d="M43,40h7.82v1.564H43Z" transform="translate(-9.155 -8.501)" fill="#686868"/>
    <path id="Path_3331" data-name="Path 3331" d="M10.82,19.769h1.564v-7.82h3.128V18.2a1.566,1.566,0,0,0,1.564,1.564h6.256A1.566,1.566,0,0,0,24.9,18.2V8.82a1.566,1.566,0,0,0-1.564-1.564H19.255A8.609,8.609,0,0,0,12.384,2.6V1H10.82V2.6A8.61,8.61,0,0,0,3,11.166v.782h7.82Zm.782-15.4A7.069,7.069,0,0,1,13.948,9.6v.782H9.256V9.6A7.07,7.07,0,0,1,11.6,4.369ZM17.077,18.2V15.077h6.256V18.2ZM23.333,8.82v4.692H17.077V11.948H20.2v-.782a8.576,8.576,0,0,0-.333-2.346ZM18.6,10.384H15.513V9.6a8.639,8.639,0,0,0-1.7-5.111A7.053,7.053,0,0,1,18.6,10.384Zm-9.2-5.9A8.628,8.628,0,0,0,7.692,9.6v.782H4.607A7.052,7.052,0,0,1,9.4,4.489Z" transform="translate(-0.436)" fill="#686868"/>
  </g>
</svg>
