<?xml version="1.0"?>
<svg xmlns="http://www.w3.org/2000/svg" xmlns:xlink="http://www.w3.org/1999/xlink" xmlns:svgjs="http://svgjs.com/svgjs" version="1.1" width="512" height="512" x="0" y="0" viewBox="0 0 64 64" style="enable-background:new 0 0 512 512" xml:space="preserve" class=""><g><g xmlns="http://www.w3.org/2000/svg" fill="#c4a2fc"><rect height="14" rx="3" width="14" x="13" y="49" fill="#a8d8f7" data-original="#c4a2fc" style="" class=""/><rect height="14" rx="3" width="14" x="31" y="49" fill="#a8d8f7" data-original="#c4a2fc" style="" class=""/><rect height="14" rx="3" width="14" x="49" y="49" fill="#a8d8f7" data-original="#c4a2fc" style="" class=""/><rect height="14" rx="3" width="14" x="13" y="31" fill="#a8d8f7" data-original="#c4a2fc" style="" class=""/><rect height="14" rx="3" width="14" x="31" y="31" fill="#a8d8f7" data-original="#c4a2fc" style="" class=""/><rect height="14" rx="3" width="14" x="49" y="31" fill="#a8d8f7" data-original="#c4a2fc" style="" class=""/><rect height="14" rx="3" width="14" x="13" y="13" fill="#a8d8f7" data-original="#c4a2fc" style="" class=""/><rect height="14" rx="3" width="14" x="31" y="13" fill="#a8d8f7" data-original="#c4a2fc" style="" class=""/><rect height="14" rx="3" width="14" x="49" y="13" fill="#a8d8f7" data-original="#c4a2fc" style="" class=""/></g><path xmlns="http://www.w3.org/2000/svg" d="m32 1h-28a3 3 0 0 0 -3 3v44a3 3 0 0 0 3 3h28a3 3 0 0 0 3-3v-44a3 3 0 0 0 -3-3zm-28 2h28a1 1 0 0 1 1 1v5h-30v-5a1 1 0 0 1 1-1zm28 46h-28a1 1 0 0 1 -1-1v-37h30v37a1 1 0 0 1 -1 1z" fill="#0589e1" data-original="#151a6a" style="" class=""/><path xmlns="http://www.w3.org/2000/svg" d="m15 7h6a1 1 0 0 0 0-2h-6a1 1 0 0 0 0 2z" fill="#0589e1" data-original="#151a6a" style="" class=""/><path xmlns="http://www.w3.org/2000/svg" d="m24 21h-12a3 3 0 0 0 -3 3v12a3 3 0 0 0 3 3h12a3 3 0 0 0 3-3v-12a3 3 0 0 0 -3-3zm1 15a1 1 0 0 1 -1 1h-12a1 1 0 0 1 -1-1v-12a1 1 0 0 1 1-1h12a1 1 0 0 1 1 1z" fill="#0589e1" data-original="#151a6a" style="" class=""/><path xmlns="http://www.w3.org/2000/svg" d="m21.351 25.063a1 1 0 0 0 -1.288.585l-2.314 6.173-.917-1.376a1 1 0 1 0 -1.664 1.11l2 3a1 1 0 0 0 1.769-.2l3-8a1 1 0 0 0 -.586-1.292z" fill="#0589e1" data-original="#151a6a" style="" class=""/><path xmlns="http://www.w3.org/2000/svg" d="m26 15h-16a1 1 0 0 0 0 2h16a1 1 0 0 0 0-2z" fill="#0589e1" data-original="#151a6a" style="" class=""/><path xmlns="http://www.w3.org/2000/svg" d="m26 43h-16a1 1 0 0 0 0 2h16a1 1 0 0 0 0-2z" fill="#0589e1" data-original="#151a6a" style="" class=""/></g></svg>
