<svg id="online-booking" xmlns="http://www.w3.org/2000/svg" width="41.405" height="41.405" viewBox="0 0 41.405 41.405">
  <g id="Group_337" data-name="Group 337" transform="translate(0 0)">
    <g id="Group_336" data-name="Group 336">
      <path id="Path_3324" data-name="Path 3324" d="M40.715,35.884h-.69V11.041a2.76,2.76,0,0,0-2.76-2.76H25.61a6.989,6.989,0,0,0,.613-2.76,5.521,5.521,0,1,0-11.041,0,6.989,6.989,0,0,0,.613,2.76H4.141a2.76,2.76,0,0,0-2.76,2.76V35.884H.69a.69.69,0,0,0-.69.69v2.07a2.76,2.76,0,0,0,2.76,2.76H38.645a2.76,2.76,0,0,0,2.76-2.76v-2.07A.69.69,0,0,0,40.715,35.884ZM20.7,1.38a4.145,4.145,0,0,1,4.141,4.141c0,3.063-3.03,5.812-4.141,6.717-1.11-.9-4.141-3.654-4.141-6.717A4.145,4.145,0,0,1,20.7,1.38ZM2.76,11.041a1.38,1.38,0,0,1,1.38-1.38H16.523a15.9,15.9,0,0,0,3.489,3.8V13.8a2.76,2.76,0,0,0,2.76,2.76h4.141a1.38,1.38,0,1,1,0,2.76H15.182a2.76,2.76,0,1,0,0,5.521H29.674a1.38,1.38,0,0,1,0,2.76H12.422a2.76,2.76,0,0,0-2.76,2.76v1.38H6.211V13.112H17.252v-1.38H5.521a.69.69,0,0,0-.69.69V32.434a.69.69,0,0,0,.69.69H35.884a.69.69,0,0,0,.69-.69V12.422a.69.69,0,0,0-.69-.69H24.153v1.38H35.194V31.744H11.041v-1.38a1.38,1.38,0,0,1,1.38-1.38H29.674a2.76,2.76,0,0,0,0-5.521H15.182a1.38,1.38,0,0,1,0-2.76H26.913a2.76,2.76,0,1,0,0-5.521H22.773a1.38,1.38,0,0,1-1.38-1.38v-.345a15.9,15.9,0,0,0,3.489-3.8H37.265a1.38,1.38,0,0,1,1.38,1.38V35.884H26.913a.69.69,0,0,0-.488.2l-1.178,1.178h-9.09L14.98,36.087a.69.69,0,0,0-.488-.2H2.76Zm37.265,27.6a1.38,1.38,0,0,1-1.38,1.38H2.76a1.38,1.38,0,0,1-1.38-1.38v-1.38H14.206l1.178,1.178a.69.69,0,0,0,.488.2h9.661a.69.69,0,0,0,.488-.2L27.2,37.265H40.025Z" transform="translate(0 0)" fill="#686868"/>
    </g>
  </g>
  <g id="Group_339" data-name="Group 339" transform="translate(19.906 34.239)">
    <g id="Group_338" data-name="Group 338" transform="translate(0)">
      <rect id="Rectangle_37" data-name="Rectangle 37" width="1" height="2" transform="translate(0.094 -0.239)" fill="#686868"/>
    </g>
  </g>
  <g id="Group_341" data-name="Group 341" transform="translate(17.942 2.76)">
    <g id="Group_340" data-name="Group 340">
      <path id="Path_3325" data-name="Path 3325" d="M210.76,32a2.76,2.76,0,1,0,2.76,2.76A2.76,2.76,0,0,0,210.76,32Zm0,4.141a1.38,1.38,0,1,1,1.38-1.38A1.38,1.38,0,0,1,210.76,36.141Z" transform="translate(-208 -32)" fill="#686868"/>
    </g>
  </g>
</svg>
