<svg xmlns="http://www.w3.org/2000/svg" width="86.262" height="80.112" viewBox="0 0 86.262 80.112">
  <g id="_002---Give-Women_s-Rights" data-name="002---Give-Women&apos;s-Rights" transform="translate(-0.945 -0.945)">
    <path id="Shape" d="M24.528,28.961a4.757,4.757,0,0,0-8-3.593l-8,7.556a4.752,4.752,0,1,0,6.521,6.913l8-7.556a4.722,4.722,0,0,0,1.482-3.32Z" transform="translate(3.28 12.473)" fill="#f34e3d"/>
    <path id="Shape-2" data-name="Shape" d="M53.967,1.015a23.526,23.526,0,0,0-16.9,6.434C3.224,39.408,35.961,8.5,21.062,22.567a3.272,3.272,0,0,0-1,2.23c-.086,3.447,5.977,6.145,9.8,2.529L41.35,16.482a4.617,4.617,0,0,1,6.527.188l22.7,24.06C84.229,26.083,74.463,1.614,53.967,1.015Z" transform="translate(10.302 0.032)" fill="#f34e3d"/>
    <path id="Shape-3" data-name="Shape" d="M35.746,40.853a4.757,4.757,0,0,0-8-3.593l-8,7.556a4.751,4.751,0,1,0,6.521,6.911l8-7.556A4.714,4.714,0,0,0,35.746,40.853Z" transform="translate(9.327 18.882)" fill="#f34e3d"/>
    <path id="Shape-4" data-name="Shape" d="M79.749,44.042c-.154-.109.325.351-23.811-25.228a1.539,1.539,0,0,0-2.176-.062L42.274,29.593A9.377,9.377,0,0,1,29,29.205a6.247,6.247,0,0,1,.248-8.841l12.6-11.9A23.622,23.622,0,1,0,7.473,40.869l2.182,2.308c.135-.154.014-.017,8.027-7.581a7.816,7.816,0,0,1,13.05,7.1,7.755,7.755,0,0,1,8.634,9.146A7.763,7.763,0,0,1,48,61a7.739,7.739,0,0,1,8.68,8.8,4.745,4.745,0,0,0,5.833-7.361L42.008,40.709A1.539,1.539,0,1,1,44.247,38.6L64.752,60.328a4.751,4.751,0,0,0,6.91-6.524L51.155,32.074a1.539,1.539,0,0,1,2.239-2.111L73.9,51.693a4.755,4.755,0,0,0,8.207-3.135,5.956,5.956,0,0,0-2.361-4.515Z" transform="translate(0 0)" fill="#f34e3d"/>
    <path id="Shape-5" data-name="Shape" d="M36.748,41.917a4.72,4.72,0,0,0-3.4,1.293l-8,7.558a4.752,4.752,0,1,0,6.522,6.912l8-7.556a4.758,4.758,0,0,0-3.124-8.206Z" transform="translate(12.348 22.081)" fill="#f34e3d"/>
    <path id="Shape-6" data-name="Shape" d="M30.124,34.907a4.757,4.757,0,0,0-8-3.593l-8,7.556a4.752,4.752,0,0,0,6.522,6.913l8-7.558a4.72,4.72,0,0,0,1.48-3.318Z" transform="translate(6.316 15.678)" fill="#f34e3d"/>
  </g>
</svg>
