<?xml version="1.0"?>
<svg xmlns="http://www.w3.org/2000/svg" xmlns:xlink="http://www.w3.org/1999/xlink" xmlns:svgjs="http://svgjs.com/svgjs" version="1.1" width="512" height="512" x="0" y="0" viewBox="0 0 64 64" style="enable-background:new 0 0 512 512" xml:space="preserve" class=""><g><path xmlns="http://www.w3.org/2000/svg" d="m63 40.5a21 21 0 1 0 -21 21 21.08 21.08 0 0 0 21-21zm-21 7a7 7 0 1 1 7-7 7 7 0 0 1 -7 7zm15.92-17.34-8.69 5a8.56 8.56 0 0 0 -1.9-1.9l5-8.69a19 19 0 0 1 5.59 5.59zm-26.26-5.58 5 8.69a8.56 8.56 0 0 0 -1.9 1.9l-8.69-5a19 19 0 0 1 5.59-5.59zm-5.58 26.26 8.69-5a8.56 8.56 0 0 0 1.9 1.9l-5 8.69a19 19 0 0 1 -5.59-5.59zm26.26 5.58-5-8.69a8.56 8.56 0 0 0 1.9-1.9l8.69 5a19 19 0 0 1 -5.59 5.59z" fill="#a8d8f7" data-original="#c4a2fc" style="" class=""/><g xmlns="http://www.w3.org/2000/svg" fill="#151a6a"><path d="m48 10.5h-5v-3a3 3 0 0 1 3-3 1 1 0 0 0 0-2 5 5 0 0 0 -5 5v1h-6v-1a3 3 0 0 1 3-3 1 1 0 0 0 0-2 5 5 0 0 0 -5 5v3h-29a3 3 0 0 0 -3 3v36a3 3 0 0 0 3 3h44a3 3 0 0 0 3-3v-36a3 3 0 0 0 -3-3zm-13 4h6v2h-6zm6-4v2h-6v-2zm8 39a1 1 0 0 1 -1 1h-44a1 1 0 0 1 -1-1v-36a1 1 0 0 1 1-1h29v8a1 1 0 0 0 2 0v-2h6v2a1 1 0 0 0 2 0v-8h5a1 1 0 0 1 1 1z" fill="#0589e1" data-original="#151a6a" style="" class=""/><path d="m45 25.36a4.11 4.11 0 0 0 -3.07 1.42c-1.2 1.15-2.13 1.19-3.37 0a4 4 0 0 0 -6.14 0c-1.21 1.16-2.13 1.18-3.36 0a4.13 4.13 0 0 0 -3.06-1.42 4.09 4.09 0 0 0 -3.06 1.42c-1.23 1.17-2.14 1.17-3.37 0a4 4 0 0 0 -6.13 0c-1.22 1.17-2.14 1.17-3.36 0a4.13 4.13 0 0 0 -3.08-1.42 1 1 0 0 0 0 2 2.18 2.18 0 0 1 1.68.86c2 1.92 4.14 1.92 6.13 0a2.08 2.08 0 0 1 3.37 0c2 1.92 4.13 1.92 6.13 0a2.07 2.07 0 0 1 3.36 0c2 1.89 4.11 2 6.14 0a2.17 2.17 0 0 1 1.68-.86 2.2 2.2 0 0 1 1.69.86c2 1.92 4.14 1.92 6.14 0a2.17 2.17 0 0 1 1.68-.86 1 1 0 0 0 0-2z" fill="#0589e1" data-original="#151a6a" style="" class=""/><path d="m7 19.36a2.18 2.18 0 0 1 1.68.86c2 1.92 4.14 1.92 6.13 0 1.23-1.17 2.14-1.17 3.37 0 2 1.92 4.13 1.92 6.13 0a2.18 2.18 0 0 1 1.69-.86 1 1 0 0 0 0-2 4.09 4.09 0 0 0 -3.06 1.42c-1.23 1.17-2.14 1.17-3.37 0-2-1.92-4.13-1.92-6.13 0-1.22 1.17-2.14 1.17-3.36 0a4.13 4.13 0 0 0 -3.08-1.42 1 1 0 0 0 0 2z" fill="#0589e1" data-original="#151a6a" style="" class=""/><path d="m45 33.36a4.11 4.11 0 0 0 -3.07 1.42c-1.2 1.15-2.13 1.19-3.37 0a4 4 0 0 0 -6.14 0c-1.21 1.16-2.13 1.18-3.36 0a4.13 4.13 0 0 0 -3.06-1.42 4.09 4.09 0 0 0 -3.06 1.42c-1.23 1.17-2.14 1.17-3.37 0a4 4 0 0 0 -6.13 0c-1.22 1.17-2.14 1.17-3.36 0a4.13 4.13 0 0 0 -3.08-1.42 1 1 0 0 0 0 2 2.18 2.18 0 0 1 1.68.86c2 1.92 4.14 1.92 6.13 0a2.08 2.08 0 0 1 3.37 0c2 1.92 4.13 1.92 6.13 0a2.07 2.07 0 0 1 3.36 0c2 1.89 4.11 2 6.14 0a2.17 2.17 0 0 1 1.68-.86 2.2 2.2 0 0 1 1.69.86c2 1.92 4.14 1.92 6.14 0a2.17 2.17 0 0 1 1.68-.86 1 1 0 0 0 0-2z" fill="#0589e1" data-original="#151a6a" style="" class=""/><path d="m45 41.36a4.11 4.11 0 0 0 -3.07 1.42c-1.2 1.15-2.13 1.19-3.37 0a4 4 0 0 0 -6.14 0c-1.21 1.16-2.13 1.18-3.36 0a4.13 4.13 0 0 0 -3.06-1.42 4.09 4.09 0 0 0 -3.06 1.42c-1.23 1.17-2.14 1.17-3.37 0a4 4 0 0 0 -6.13 0c-1.22 1.17-2.14 1.17-3.36 0a4.13 4.13 0 0 0 -3.08-1.42 1 1 0 0 0 0 2 2.18 2.18 0 0 1 1.68.86c2 1.92 4.14 1.92 6.13 0a2.08 2.08 0 0 1 3.37 0c2 1.92 4.13 1.92 6.13 0a2.07 2.07 0 0 1 3.36 0c2 1.89 4.11 2 6.14 0a2.17 2.17 0 0 1 1.68-.86 2.2 2.2 0 0 1 1.69.86c2 1.92 4.14 1.92 6.14 0a2.17 2.17 0 0 1 1.68-.86 1 1 0 0 0 0-2z" fill="#0589e1" data-original="#151a6a" style="" class=""/></g></g></svg>
