<svg id="Capa_1" enable-background="new 0 0 512 512" height="512" viewBox="0 0 512 512" width="512" xmlns="http://www.w3.org/2000/svg"><g><g><g><g><g><g><g><g><g><path d="m15.563 167.902c35.891-98.023 129.98-167.902 240.437-167.902 110.4 0 204.476 69.883 240.409 167.826l-240.402 36.563z" fill="#ffce00"/></g></g></g></g></g></g></g></g><g fill="#fdba12"><path d="m256.007 204.389 39.47-6.004-97.975-97.975-75.117 10.06-13.532 71.589z"/><path d="m455.825 173.999-73.801-73.802-74.699 10.875-8.967 86.875z"/></g><g><g><g><g><g><g><g><g><path d="m3.533 213.378c2.634-15.716 6.671-30.869 12.03-45.476l480.846-.076c5.359 14.607 9.424 29.836 12.058 45.552l-4.824 40.264-247.636 53.948-240.473-34.208z" fill="#7584f2"/></g></g></g></g></g></g></g></g><g><g><g><g><g><g><g><g><path d="m508.467 213.378c-2.634-15.716-6.699-30.945-12.058-45.552l-240.402.038v139.717l247.636-53.938z" fill="#606aea"/></g></g></g></g></g></g></g></g><g><path d="m13.343 337.786c-8.653-25.682-13.343-53.186-13.343-81.786 0-14.522 1.21-28.76 3.533-42.622 12.705 19.265 34.539 31.976 59.343 31.976 28.484 0 53.052-16.765 64.375-40.965 11.323 24.2 35.891 40.965 64.375 40.965s53.059-16.765 64.382-40.965c11.323 24.2 35.884 40.965 64.368 40.965s53.052-16.765 64.375-40.965c11.323 24.2 35.891 40.965 64.375 40.965 24.803 0 46.637-12.711 59.343-31.975 2.322 13.861 3.531 28.099 3.531 42.621 0 28.6-4.69 56.104-13.343 81.786l-24.769 36.917-244.995 65.957-181.574-65.088z" fill="#a3d4ff"/></g><g><path d="m508.467 213.378c-12.705 19.265-34.539 31.976-59.343 31.976-28.484 0-53.052-16.765-64.375-40.965-11.323 24.2-35.891 40.965-64.375 40.965-28.472 0-53.038-16.751-64.368-40.936v228.941l217.881-58.656 24.769-36.917c8.654-25.682 13.344-53.186 13.344-81.786 0-14.522-1.209-28.76-3.533-42.622z" fill="#65b1fc"/></g><path d="m338.112 81.625c-33.797 0-61.292 27.496-61.292 61.292v24.909h30v-24.909c0-17.255 14.037-31.292 31.292-31.292s31.292 14.038 31.292 31.292v110.726h-154.723v-110.726c0-33.797-27.496-61.292-61.292-61.292s-61.292 27.496-61.292 61.292v24.909h30v-24.909c0-17.255 14.038-31.292 31.292-31.292 17.255 0 31.292 14.038 31.292 31.292v297.743h30v-82.884h154.724v82.884h30v-297.743c-.001-33.797-27.496-61.292-61.293-61.292zm-123.431 246.151v-44.133h154.724v44.133z" fill="#fff"/><path d="m338.112 81.625c-33.797 0-61.292 27.496-61.292 61.292v24.909h30v-24.909c0-17.255 14.037-31.292 31.292-31.292s31.292 14.038 31.292 31.292v110.726h-113.397v30h113.397v44.133h-113.397v30h113.397v82.884h30v-297.743c0-33.797-27.495-61.292-61.292-61.292z" fill="#e9edf5"/><g><path d="m13.343 337.786c34.122 101.279 129.879 174.214 242.664 174.214s208.528-72.935 242.65-174.214c-12.796 12.45-30.269 20.118-49.532 20.118-28.484 0-53.052-16.765-64.375-40.965-11.323 24.2-35.891 40.965-64.375 40.965s-53.044-16.765-64.368-40.965c-11.323 24.2-35.899 40.965-64.382 40.965s-53.051-16.765-64.375-40.965c-11.323 24.2-35.891 40.965-64.375 40.965-19.264.001-36.736-7.667-49.532-20.118z" fill="#65b1fc"/></g><g><path d="m498.657 337.787c-12.796 12.45-30.269 20.118-49.532 20.118-28.484 0-53.052-16.765-64.375-40.965-11.323 24.2-35.891 40.965-64.375 40.965-28.472 0-53.038-16.751-64.368-40.936v195.031c112.779-.006 208.529-72.939 242.65-174.213z" fill="#4a7aff"/></g></g></svg>