<svg xmlns="http://www.w3.org/2000/svg" width="44.719" height="45.65" viewBox="0 0 44.719 45.65">
  <g id="user-profile" transform="translate(-26.5 -24.389)">
    <path id="Path_3332" data-name="Path 3332" d="M103.571,220.974a.551.551,0,0,0-.67.4l-.319,1.245a.551.551,0,0,0,.4.67.543.543,0,0,0,.137.017.551.551,0,0,0,.533-.414l.319-1.245A.551.551,0,0,0,103.571,220.974Z" transform="translate(-59.308 -153.265)" fill="#686868"/>
    <path id="Path_3333" data-name="Path 3333" d="M148.071,221.371a.551.551,0,0,0-1.067.273l.319,1.246a.551.551,0,0,0,.533.414.545.545,0,0,0,.137-.017.551.551,0,0,0,.4-.67Z" transform="translate(-93.944 -153.265)" fill="#686868"/>
    <path id="Path_3334" data-name="Path 3334" d="M104.153,171.978a2.852,2.852,0,0,0-2.765-2.147h-1.3a5.081,5.081,0,1,0-7.61,0h-1.3a2.853,2.853,0,0,0-2.765,2.146l-1.073,4.189a.551.551,0,1,0,1.067.273l1.073-4.189a1.752,1.752,0,0,1,1.7-1.318H94a.551.551,0,0,0,.278-1.026,3.979,3.979,0,1,1,4.006,0,.551.551,0,0,0,.278,1.026h2.825a1.752,1.752,0,0,1,1.7,1.318l1.073,4.189a.551.551,0,0,0,1.067-.273Z" transform="translate(-47.423 -106.816)" fill="#686868"/>
    <path id="Path_3335" data-name="Path 3335" d="M69.644,24.389H28.075A1.577,1.577,0,0,0,26.5,25.964v24.4a1.577,1.577,0,0,0,1.575,1.575H69.645a1.577,1.577,0,0,0,1.575-1.575v-24.4A1.577,1.577,0,0,0,69.644,24.389Zm.474,25.975a.475.475,0,0,1-.474.474H28.075a.475.475,0,0,1-.474-.474v-24.4a.475.475,0,0,1,.474-.474H69.645a.475.475,0,0,1,.473.474Z" fill="#686868"/>
    <g id="Group_342" data-name="Group 342" transform="translate(30.759 30.239)">
      <path id="Path_3336" data-name="Path 3336" d="M61.133,66.8H46.384a.551.551,0,0,1-.551-.551V51.495a.551.551,0,0,1,.551-.551H61.133a.551.551,0,0,1,.551.551v14.75a.551.551,0,0,1-.551.551Zm-14.2-1.1H60.582V52.045H46.934Z" transform="translate(-45.833 -50.944)" fill="#686868"/>
      <path id="Path_3337" data-name="Path 3337" d="M60.812,77.315h-.027a.551.551,0,0,1-.4-.2L56.859,72.8a.551.551,0,0,1,.853-.7l3.141,3.838,6.033-6.034a.551.551,0,0,1,.779.779L61.2,77.154a.551.551,0,0,1-.389.161Z" transform="translate(-54.333 -65.607)" fill="#686868"/>
      <path id="Path_3338" data-name="Path 3338" d="M143.993,52.045h-6.609a.551.551,0,0,1,0-1.1h6.609a.551.551,0,1,1,0,1.1Z" transform="translate(-116.786 -50.944)" fill="#686868"/>
      <path id="Path_3339" data-name="Path 3339" d="M151.629,74.364H137.384a.551.551,0,1,1,0-1.1h14.246a.551.551,0,0,1,0,1.1Z" transform="translate(-116.786 -68.346)" fill="#686868"/>
      <path id="Path_3340" data-name="Path 3340" d="M151.629,96.681H137.384a.551.551,0,1,1,0-1.1h14.246a.551.551,0,0,1,0,1.1Z" transform="translate(-116.786 -85.747)" fill="#686868"/>
      <path id="Path_3341" data-name="Path 3341" d="M151.629,119H137.384a.551.551,0,1,1,0-1.1h14.246a.551.551,0,0,1,0,1.1Z" transform="translate(-116.786 -103.15)" fill="#686868"/>
    </g>
  </g>
</svg>
