<svg xmlns="http://www.w3.org/2000/svg" width="1920" height="143.842" viewBox="0 0 1920 143.842">
  <path id="wave-top-footer" d="M1920,143.872V.187c-10.5-.674-23.6.9-34.1,3.143-12.9,2.694-25.8,6.96-38.7,10.327-24.6,6.96-49.1,15.491-73.7,23.349-15.3,4.939-30.6,10.552-46,15.042-22.6,6.735-45.2,13.919-67.8,20.206-19,5.164-38,10.552-57,15.266-18.7,4.715-37.4,8.756-56.1,13.021-25.7,5.837-51.3,10.776-77,15.715-20.2,3.817-40.5,6.511-60.7,9.429-21.1,3.143-42.2,5.164-63.3,7.184-22.4,2.245-44.9,4.49-67.3,4.715-46.5.449-93,2.919-139.4-1.572-15.5-1.572-31-.674-46.4-2.245l-48.3-4.715c-21.4-2.021-42.9-4.715-64.3-7.409-14.6-1.8-29.2-3.817-43.8-5.837-6.1-.9-12.3-.9-18.4-2.245-13.2-2.919-26.5-4.49-39.8-6.511-12.3-1.8-24.6-3.592-36.8-5.613-17.7-3.143-35.5-5.388-53.2-8.531-13.1-2.245-26.2-3.592-39.3-5.837-24.2-4.041-48.5-6.96-72.7-11-18.6-2.919-37.2-4.939-55.8-6.96-23.8-2.694-47.5-4.939-71.3-7.409-20.9-2.021-41.9-2.919-62.9-4.715-19.5-1.572-39-2.245-58.4-2.245-54.8-.225-109.6-2.919-164.4,1.8-11.5.9-22.9.674-34.4,1.8-20.3,1.8-40.6,3.368-60.8,5.164-17.5,1.347-34.9,4.266-52.3,5.837-6.1.674-12.3.9-18.4,2.245C80.5,75.622,63.7,77.193,47,80.336c-13.6,2.919-33.7,7.858-47,10.1v53.433H1920Z" transform="translate(0 -0.03)" fill="#164f74"/>
</svg>
